<svg width="631" height="13" viewBox="0 0 631 13" fill="none" xmlns="http://www.w3.org/2000/svg">
<g clip-path="url(#clip0_319_199)">
<path d="M580.472 1.56081C566.679 1.21844 552.885 0.966693 539.092 0.674671C534.542 0.573974 529.967 0.573974 525.417 0.523625C515.538 0.412858 505.658 0.312161 495.779 0.201394C490.285 0.140976 484.768 0.070488 479.274 0.0201394C477.671 0.0100697 476.091 0 474.488 0C470.904 0 467.32 0.0201394 463.736 0.0302091C447.444 0.0302091 431.128 0.0503486 414.835 0.0503486C410.945 0.0503486 407.078 0.0906274 403.187 0.110767C393.567 0.161115 383.971 0.221534 374.375 0.271882C363.529 0.332301 352.706 0.35244 341.86 0.473277C324.318 0.654531 306.8 0.845856 289.258 1.02711C279.095 1.13788 268.957 1.1983 258.794 1.36948C241.299 1.67157 223.828 1.96359 206.333 2.25562C196.784 2.41673 187.211 2.54764 177.662 2.77924C159.577 3.21224 141.493 3.63517 123.408 4.06816C113.741 4.29977 104.074 4.47095 94.4308 4.82339C76.417 5.47792 58.4268 6.13246 40.4131 6.78699C36.5227 6.92796 32.6323 7.06894 28.7419 7.20991C20.9611 7.49187 13.2274 7.93493 5.47019 8.30751C4.97505 8.33772 4.50349 8.36793 4.00834 8.38807C3.08879 8.49884 2.26356 8.70023 1.57979 8.99225C0.565926 9.42525 -0.0235291 10.0294 -0.0235291 10.6437C-0.0235291 11.2579 0.565926 11.8621 1.57979 12.3052C2.49934 12.6979 4.10266 13.0604 5.47019 12.9899C14.8307 12.5368 24.1677 12.0635 33.5518 11.7211C42.2522 11.409 50.929 11.0868 59.6293 10.7746C69.1078 10.4322 78.5862 10.0899 88.0646 9.74748C91.8843 9.60651 95.704 9.42525 99.5472 9.33462C114.331 8.98218 129.114 8.63981 143.898 8.29744C153.117 8.07591 162.336 7.86445 171.555 7.64291C175.351 7.55229 179.171 7.44152 182.991 7.37103C197.633 7.11929 212.298 6.88768 226.94 6.65608C235.829 6.5151 244.695 6.36406 253.584 6.22308C256.578 6.17273 259.549 6.11232 262.543 6.08211C278.364 5.92099 294.185 5.76995 310.006 5.6189C318.848 5.52827 327.666 5.44772 336.508 5.35709C339.644 5.32688 342.804 5.27653 345.939 5.26646C362.256 5.19597 378.572 5.12548 394.888 5.055C405.074 5.00465 415.236 4.96437 425.422 4.97444C442.752 4.99458 460.082 5.00465 477.388 5.02479C480.807 5.02479 484.226 5.08521 487.645 5.13555C497.217 5.25639 506.766 5.37723 516.339 5.49806C523.507 5.58869 530.675 5.67932 537.866 5.76995C542.959 5.83036 548.028 5.99148 553.121 6.11232C568.093 6.45469 583.066 6.8172 598.014 7.20991C601.81 7.31061 605.606 7.43145 609.402 7.55229C613.481 7.67312 617.561 7.80403 621.616 7.99535C622.253 8.03563 622.866 8.08598 623.502 8.1464C625.106 8.28737 626.638 8.2471 628.076 7.89466C629.397 7.56236 630.387 7.00852 630.811 6.37413C631.66 5.04493 629.774 3.6251 626.662 3.25252C623.927 2.93029 621.097 2.79938 618.291 2.67854C616.358 2.59799 614.448 2.50736 612.515 2.4268C608.813 2.26569 605.088 2.18513 601.386 2.06429C594.43 1.84276 587.451 1.71185 580.472 1.54067V1.56081Z" fill="#5DC4F1"/>
</g>
<defs>
<clipPath id="clip0_319_199">
<rect width="631" height="13" fill="white"/>
</clipPath>
</defs>
</svg>
