<svg width="168" height="13" viewBox="0 0 168 13" fill="none" xmlns="http://www.w3.org/2000/svg">
<g clip-path="url(#clip0_319_201)">
<path d="M154.547 1.56081C150.875 1.21844 147.202 0.966693 143.53 0.674671C142.318 0.573974 141.101 0.573974 139.889 0.523625C137.259 0.412858 134.628 0.312161 131.998 0.201394C130.536 0.140976 129.067 0.070488 127.604 0.0201394C127.177 0.0100697 126.756 0 126.33 0C125.375 0 124.421 0.0201394 123.467 0.0302091C119.129 0.0302091 114.785 0.0503486 110.447 0.0503486C109.412 0.0503486 108.382 0.0906274 107.346 0.110767C104.785 0.161115 102.23 0.221534 99.675 0.271882C96.7874 0.332301 93.906 0.35244 91.0183 0.473277C86.3478 0.654531 81.6836 0.845856 77.0131 1.02711C74.3074 1.13788 71.6081 1.1983 68.9025 1.36948C64.2445 1.67157 59.5928 1.96359 54.9349 2.25562C52.3925 2.41673 49.8438 2.54764 47.3014 2.77924C42.4865 3.21224 37.6716 3.63517 32.8567 4.06816C30.2829 4.29977 27.7091 4.47095 25.1416 4.82339C20.3456 5.47792 15.5558 6.13246 10.7597 6.78699C9.72393 6.92796 8.68813 7.06894 7.65233 7.20991C5.58074 7.49187 3.5217 7.93493 1.45638 8.30751C1.32456 8.33772 1.199 8.36793 1.06718 8.38807C0.822351 8.49884 0.602636 8.70023 0.420587 8.99225C0.150652 9.42525 -0.00628662 10.0294 -0.00628662 10.6437C-0.00628662 11.2579 0.150652 11.8621 0.420587 12.3052C0.665412 12.6979 1.09229 13.0604 1.45638 12.9899C3.94857 12.5368 6.43449 12.0635 8.93296 11.7211C11.2494 11.409 13.5595 11.0868 15.8759 10.7746C18.3995 10.4322 20.9231 10.0899 23.4467 9.74748C24.4636 9.60651 25.4806 9.42525 26.5038 9.33462C30.4399 8.98218 34.3759 8.63981 38.3119 8.29744C40.7664 8.07591 43.221 7.86445 45.6755 7.64291C46.6862 7.55229 47.7032 7.44152 48.7201 7.37103C52.6185 7.11929 56.5231 6.88768 60.4215 6.65608C62.7881 6.5151 65.1485 6.36406 67.5151 6.22308C68.3124 6.17273 69.1033 6.11232 69.9006 6.08211C74.1128 5.92099 78.3251 5.76995 82.5373 5.6189C84.8914 5.52827 87.2392 5.44772 89.5933 5.35709C90.4282 5.32688 91.2694 5.27653 92.1043 5.26646C96.4484 5.19597 100.792 5.12548 105.137 5.055C107.848 5.00465 110.554 4.96437 113.266 4.97444C117.88 4.99458 122.494 5.00465 127.102 5.02479C128.012 5.02479 128.922 5.08521 129.832 5.13555C132.381 5.25639 134.924 5.37723 137.472 5.49806C139.381 5.58869 141.289 5.67932 143.204 5.76995C144.56 5.83036 145.909 5.99148 147.265 6.11232C151.251 6.45469 155.238 6.8172 159.218 7.20991C160.228 7.31061 161.239 7.43145 162.25 7.55229C163.336 7.67312 164.422 7.80403 165.502 7.99535C165.671 8.03563 165.834 8.08598 166.004 8.1464C166.431 8.28737 166.839 8.2471 167.222 7.89466C167.573 7.56236 167.837 7.00852 167.95 6.37413C168.176 5.04493 167.674 3.6251 166.845 3.25252C166.117 2.93029 165.363 2.79938 164.616 2.67854C164.102 2.59799 163.593 2.50736 163.078 2.4268C162.093 2.26569 161.101 2.18513 160.115 2.06429C158.263 1.84276 156.405 1.71185 154.547 1.54067V1.56081Z" fill="#5DC4F1"/>
</g>
<defs>
<clipPath id="clip0_319_201">
<rect width="168" height="13" fill="white"/>
</clipPath>
</defs>
</svg>
