<svg width="760" height="13" viewBox="0 0 760 13" fill="none" xmlns="http://www.w3.org/2000/svg">
<g clip-path="url(#clip0_319_203)">
<path d="M699.142 1.56081C682.529 1.21844 665.916 0.966693 649.303 0.674671C643.822 0.573974 638.313 0.573974 632.832 0.523625C620.933 0.412858 609.034 0.312161 597.135 0.201394C590.518 0.140976 583.873 0.070488 577.256 0.0201394C575.325 0.0100697 573.422 0 571.491 0C567.175 0 562.858 0.0201394 558.541 0.0302091C538.918 0.0302091 519.266 0.0503486 499.643 0.0503486C494.957 0.0503486 490.3 0.0906274 485.614 0.110767C474.028 0.161115 462.469 0.221534 450.911 0.271882C437.848 0.332301 424.813 0.35244 411.75 0.473277C390.621 0.654531 369.521 0.845856 348.393 1.02711C336.153 1.13788 323.942 1.1983 311.702 1.36948C290.63 1.67157 269.587 1.96359 248.515 2.25562C237.014 2.41673 225.484 2.54764 213.983 2.77924C192.201 3.21224 170.419 3.63517 148.638 4.06816C136.994 4.29977 125.351 4.47095 113.736 4.82339C92.0396 5.47792 70.3716 6.13246 48.6752 6.78699C43.9894 6.92796 39.3037 7.06894 34.6179 7.20991C25.2464 7.49187 15.9317 7.93493 6.58863 8.30751C5.99226 8.33772 5.42429 8.36793 4.82793 8.38807C3.72039 8.49884 2.72644 8.70023 1.90288 8.99225C0.681748 9.42525 -0.0282135 10.0294 -0.0282135 10.6437C-0.0282135 11.2579 0.681748 11.8621 1.90288 12.3052C3.01042 12.6979 4.94152 13.0604 6.58863 12.9899C17.8628 12.5368 29.1086 12.0635 40.4112 11.7211C50.8903 11.409 61.3409 11.0868 71.8199 10.7746C83.2361 10.4322 94.6523 10.0899 106.068 9.74748C110.669 9.60651 115.27 9.42525 119.899 9.33462C137.704 8.98218 155.51 8.63981 173.316 8.29744C184.42 8.07591 195.524 7.86445 206.628 7.64291C211.2 7.55229 215.8 7.44152 220.401 7.37103C238.036 7.11929 255.7 6.88768 273.336 6.65608C284.042 6.5151 294.72 6.36406 305.426 6.22308C309.032 6.17273 312.611 6.11232 316.217 6.08211C335.273 5.92099 354.328 5.76995 373.383 5.6189C384.033 5.52827 394.654 5.44772 405.303 5.35709C409.08 5.32688 412.886 5.27653 416.663 5.26646C436.314 5.19597 455.966 5.12548 475.618 5.055C487.886 5.00465 500.126 4.96437 512.394 4.97444C533.267 4.99458 554.14 5.00465 574.984 5.02479C579.102 5.02479 583.22 5.08521 587.337 5.13555C598.867 5.25639 610.369 5.37723 621.898 5.49806C630.532 5.58869 639.165 5.67932 647.826 5.76995C653.96 5.83036 660.066 5.99148 666.2 6.11232C684.233 6.45469 702.266 6.8172 720.271 7.20991C724.843 7.31061 729.415 7.43145 733.987 7.55229C738.9 7.67312 743.813 7.80403 748.698 7.99535C749.464 8.03563 750.203 8.08598 750.97 8.1464C752.901 8.28737 754.747 8.2471 756.479 7.89466C758.069 7.56236 759.262 7.00852 759.773 6.37413C760.795 5.04493 758.523 3.6251 754.775 3.25252C751.481 2.93029 748.073 2.79938 744.693 2.67854C742.365 2.59799 740.064 2.50736 737.736 2.4268C733.277 2.26569 728.79 2.18513 724.332 2.06429C715.954 1.84276 707.548 1.71185 699.142 1.54067V1.56081Z" fill="#5DC4F1"/>
</g>
<defs>
<clipPath id="clip0_319_203">
<rect width="760" height="13" fill="white"/>
</clipPath>
</defs>
</svg>
