<svg width="389" height="13" viewBox="0 0 389 13" fill="none" xmlns="http://www.w3.org/2000/svg">
<g clip-path="url(#clip0_319_205)">
<path d="M357.85 1.56081C349.347 1.21844 340.844 0.966693 332.341 0.674671C329.535 0.573974 326.715 0.573974 323.91 0.523625C317.82 0.412858 311.729 0.312161 305.639 0.201394C302.252 0.140976 298.851 0.070488 295.464 0.0201394C294.475 0.0100697 293.502 0 292.513 0C290.304 0 288.094 0.0201394 285.885 0.0302091C275.841 0.0302091 265.782 0.0503486 255.738 0.0503486C253.34 0.0503486 250.956 0.0906274 248.558 0.110767C242.627 0.161115 236.711 0.221534 230.795 0.271882C224.109 0.332301 217.437 0.35244 210.751 0.473277C199.936 0.654531 189.136 0.845856 178.322 1.02711C172.057 1.13788 165.807 1.1983 159.542 1.36948C148.757 1.67157 137.986 1.96359 127.201 2.25562C121.314 2.41673 115.412 2.54764 109.525 2.77924C98.3766 3.21224 87.2278 3.63517 76.0791 4.06816C70.1195 4.29977 64.1599 4.47095 58.2149 4.82339C47.1097 5.47792 36.0191 6.13246 24.914 6.78699C22.5156 6.92796 20.1173 7.06894 17.7189 7.20991C12.9222 7.49187 8.15451 7.93493 3.37231 8.30751C3.06707 8.33772 2.77636 8.36793 2.47111 8.38807C1.90423 8.49884 1.39548 8.70023 0.973951 8.99225C0.348923 9.42525 -0.0144653 10.0294 -0.0144653 10.6437C-0.0144653 11.2579 0.348923 11.8621 0.973951 12.3052C1.54084 12.6979 2.52925 13.0604 3.37231 12.9899C9.14292 12.5368 14.899 12.0635 20.6841 11.7211C26.0477 11.409 31.3968 11.0868 36.7604 10.7746C42.6037 10.4322 48.447 10.0899 54.2903 9.74748C56.645 9.60651 58.9998 9.42525 61.3691 9.33462C70.4829 8.98218 79.5967 8.63981 88.7104 8.29744C94.3938 8.07591 100.077 7.86445 105.761 7.64291C108.101 7.55229 110.456 7.44152 112.81 7.37103C121.837 7.11929 130.878 6.88768 139.905 6.65608C145.385 6.5151 150.85 6.36406 156.33 6.22308C158.176 6.17273 160.007 6.11232 161.853 6.08211C171.607 5.92099 181.36 5.76995 191.113 5.6189C196.564 5.52827 202 5.44772 207.451 5.35709C209.384 5.32688 211.332 5.27653 213.265 5.26646C223.324 5.19597 233.383 5.12548 243.441 5.055C249.721 5.00465 255.985 4.96437 262.265 4.97444C272.948 4.99458 283.632 5.00465 294.301 5.02479C296.409 5.02479 298.516 5.08521 300.624 5.13555C306.525 5.25639 312.412 5.37723 318.314 5.49806C322.733 5.58869 327.151 5.67932 331.585 5.76995C334.724 5.83036 337.85 5.99148 340.989 6.11232C350.219 6.45469 359.449 6.8172 368.665 7.20991C371.005 7.31061 373.345 7.43145 375.686 7.55229C378.2 7.67312 380.715 7.80403 383.215 7.99535C383.607 8.03563 383.985 8.08598 384.378 8.1464C385.366 8.28737 386.311 8.2471 387.198 7.89466C388.012 7.56236 388.622 7.00852 388.884 6.37413C389.407 5.04493 388.244 3.6251 386.326 3.25252C384.639 2.93029 382.895 2.79938 381.165 2.67854C379.974 2.59799 378.796 2.50736 377.604 2.4268C375.322 2.26569 373.026 2.18513 370.743 2.06429C366.455 1.84276 362.153 1.71185 357.85 1.54067V1.56081Z" fill="#5DC4F1"/>
</g>
<defs>
<clipPath id="clip0_319_205">
<rect width="389" height="13" fill="white"/>
</clipPath>
</defs>
</svg>
