<svg width="211" height="13" viewBox="0 0 211 13" fill="none" xmlns="http://www.w3.org/2000/svg">
<g clip-path="url(#clip0_319_207)">
<path d="M194.104 1.56081C189.492 1.21844 184.879 0.966693 180.267 0.674671C178.745 0.573974 177.216 0.573974 175.694 0.523625C172.391 0.412858 169.087 0.312161 165.783 0.201394C163.946 0.140976 162.102 0.070488 160.264 0.0201394C159.728 0.0100697 159.2 0 158.664 0C157.466 0 156.267 0.0201394 155.069 0.0302091C149.621 0.0302091 144.165 0.0503486 138.717 0.0503486C137.416 0.0503486 136.123 0.0906274 134.822 0.110767C131.605 0.161115 128.396 0.221534 125.187 0.271882C121.56 0.332301 117.941 0.35244 114.315 0.473277C108.449 0.654531 102.591 0.845856 96.7248 1.02711C93.3266 1.13788 89.9364 1.1983 86.5382 1.36948C80.6881 1.67157 74.8458 1.96359 68.9956 2.25562C65.8025 2.41673 62.6015 2.54764 59.4083 2.77924C53.361 3.21224 47.3138 3.63517 41.2665 4.06816C38.0339 4.29977 34.8014 4.47095 31.5767 4.82339C25.5531 5.47792 19.5373 6.13246 13.5137 6.78699C12.2128 6.92796 10.9119 7.06894 9.61099 7.20991C7.00917 7.49187 4.42311 7.93493 1.82917 8.30751C1.6636 8.33772 1.50591 8.36793 1.34034 8.38807C1.03286 8.49884 0.756905 8.70023 0.52826 8.99225C0.189234 9.42525 -0.00787354 10.0294 -0.00787354 10.6437C-0.00787354 11.2579 0.189234 11.8621 0.52826 12.3052C0.835748 12.6979 1.37188 13.0604 1.82917 12.9899C4.95924 12.5368 8.08143 12.0635 11.2194 11.7211C14.1287 11.409 17.0301 11.0868 19.9394 10.7746C23.1089 10.4322 26.2784 10.0899 29.4479 9.74748C30.7252 9.60651 32.0024 9.42525 33.2876 9.33462C38.231 8.98218 43.1745 8.63981 48.118 8.29744C51.2007 8.07591 54.2835 7.86445 57.3663 7.64291C58.6357 7.55229 59.9129 7.44152 61.1902 7.37103C66.0863 7.11929 70.9904 6.88768 75.8865 6.65608C78.8589 6.5151 81.8234 6.36406 84.7958 6.22308C85.7971 6.17273 86.7905 6.11232 87.7918 6.08211C93.0822 5.92099 98.3726 5.76995 103.663 5.6189C106.62 5.52827 109.568 5.44772 112.525 5.35709C113.574 5.32688 114.63 5.27653 115.679 5.26646C121.135 5.19597 126.591 5.12548 132.046 5.055C135.453 5.00465 138.851 4.96437 142.257 4.97444C148.052 4.99458 153.847 5.00465 159.634 5.02479C160.777 5.02479 161.92 5.08521 163.063 5.13555C166.264 5.25639 169.458 5.37723 172.659 5.49806C175.055 5.58869 177.452 5.67932 179.857 5.76995C181.56 5.83036 183.255 5.99148 184.958 6.11232C189.965 6.45469 194.971 6.8172 199.97 7.20991C201.239 7.31061 202.509 7.43145 203.778 7.55229C205.142 7.67312 206.506 7.80403 207.862 7.99535C208.075 8.03563 208.28 8.08598 208.493 8.1464C209.029 8.28737 209.541 8.2471 210.022 7.89466C210.464 7.56236 210.795 7.00852 210.937 6.37413C211.221 5.04493 210.59 3.6251 209.549 3.25252C208.635 2.93029 207.689 2.79938 206.75 2.67854C206.104 2.59799 205.465 2.50736 204.819 2.4268C203.581 2.26569 202.335 2.18513 201.097 2.06429C198.771 1.84276 196.438 1.71185 194.104 1.54067V1.56081Z" fill="#5DC4F1"/>
</g>
<defs>
<clipPath id="clip0_319_207">
<rect width="211" height="13" fill="white"/>
</clipPath>
</defs>
</svg>
