<svg width="326" height="13" viewBox="0 0 326 13" fill="none" xmlns="http://www.w3.org/2000/svg">
<g clip-path="url(#clip0_319_209)">
<path d="M299.895 1.56081C292.769 1.21844 285.643 0.966693 278.517 0.674671C276.166 0.573974 273.803 0.573974 271.451 0.523625C266.347 0.412858 261.243 0.312161 256.139 0.201394C253.301 0.140976 250.451 0.070488 247.612 0.0201394C246.784 0.0100697 245.968 0 245.14 0C243.288 0 241.436 0.0201394 239.585 0.0302091C231.167 0.0302091 222.738 0.0503486 214.32 0.0503486C212.311 0.0503486 210.313 0.0906274 208.303 0.110767C203.333 0.161115 198.375 0.221534 193.417 0.271882C187.814 0.332301 182.222 0.35244 176.619 0.473277C167.556 0.654531 158.505 0.845856 149.442 1.02711C144.192 1.13788 138.954 1.1983 133.704 1.36948C124.665 1.67157 115.639 1.96359 106.6 2.25562C101.666 2.41673 96.7208 2.54764 91.7873 2.77924C82.4441 3.21224 73.1009 3.63517 63.7577 4.06816C58.7634 4.29977 53.769 4.47095 48.7867 4.82339C39.4801 5.47792 30.1857 6.13246 20.879 6.78699C18.8691 6.92796 16.8592 7.06894 14.8492 7.20991C10.8293 7.49187 6.83383 7.93493 2.82613 8.30751C2.57032 8.33772 2.32669 8.36793 2.07088 8.38807C1.59581 8.49884 1.16945 8.70023 0.816193 8.99225C0.29239 9.42525 -0.012146 10.0294 -0.012146 10.6437C-0.012146 11.2579 0.29239 11.8621 0.816193 12.3052C1.29127 12.6979 2.11961 13.0604 2.82613 12.9899C7.66217 12.5368 12.486 12.0635 17.3342 11.7211C21.8292 11.409 26.312 11.0868 30.8069 10.7746C35.7039 10.4322 40.6008 10.0899 45.4978 9.74748C47.4711 9.60651 49.4445 9.42525 51.4301 9.33462C59.0679 8.98218 66.7057 8.63981 74.3434 8.29744C79.1064 8.07591 83.8693 7.86445 88.6323 7.64291C90.5935 7.55229 92.5669 7.44152 94.5403 7.37103C102.105 7.11929 109.682 6.88768 117.247 6.65608C121.839 6.5151 126.419 6.36406 131.012 6.22308C132.559 6.17273 134.093 6.11232 135.64 6.08211C143.814 5.92099 151.988 5.76995 160.162 5.6189C164.73 5.52827 169.286 5.44772 173.854 5.35709C175.474 5.32688 177.106 5.27653 178.726 5.26646C187.156 5.19597 195.585 5.12548 204.015 5.055C209.277 5.00465 214.528 4.96437 219.79 4.97444C228.743 4.99458 237.697 5.00465 246.638 5.02479C248.404 5.02479 250.171 5.08521 251.937 5.13555C256.882 5.25639 261.816 5.37723 266.762 5.49806C270.465 5.58869 274.168 5.67932 277.883 5.76995C280.514 5.83036 283.133 5.99148 285.765 6.11232C293.5 6.45469 301.235 6.8172 308.958 7.20991C310.919 7.31061 312.881 7.43145 314.842 7.55229C316.949 7.67312 319.057 7.80403 321.152 7.99535C321.481 8.03563 321.797 8.08598 322.126 8.1464C322.955 8.28737 323.746 8.2471 324.49 7.89466C325.172 7.56236 325.683 7.00852 325.903 6.37413C326.341 5.04493 325.367 3.6251 323.759 3.25252C322.346 2.93029 320.884 2.79938 319.434 2.67854C318.435 2.59799 317.449 2.50736 316.45 2.4268C314.537 2.26569 312.613 2.18513 310.7 2.06429C307.107 1.84276 303.501 1.71185 299.895 1.54067V1.56081Z" fill="#5DC4F1"/>
</g>
<defs>
<clipPath id="clip0_319_209">
<rect width="326" height="13" fill="white"/>
</clipPath>
</defs>
</svg>
