<svg width="70" height="70" viewBox="0 0 70 70" fill="none" xmlns="http://www.w3.org/2000/svg">
<path d="M8.42857 63.0897C8.42857 63.7753 8.98851 64.3413 9.67814 64.3514C17.2235 64.4552 23.1427 64.6459 30.3301 64.7764C33.69 65.6407 44.8337 68.3474 45.7714 68.3474C45.9045 68.3474 46.035 68.3247 46.1594 68.2836C46.6212 68.3053 47.0843 68.2985 47.5421 68.2336C47.9262 68.179 48.2352 67.8989 48.3621 67.5323C48.6791 66.6164 49.0125 65.6543 49.3318 64.7321C54.1789 64.591 53.935 64.6091 54.3276 64.3451C54.6626 64.203 54.8562 64.0515 55.2527 63.8108C55.9127 63.4101 56.3422 62.7175 56.3819 61.9465C56.8902 52.0824 57.1064 42.3372 57.126 32.529C58.5979 26.9854 60.0383 21.3773 61.5146 15.8651C61.7556 14.9655 61.2565 14.375 61.1162 13.9714C61.098 13.4732 60.802 13.0181 60.3304 12.8456C59.1328 12.3772 58.0022 11.9509 56.8934 11.5409C56.883 11.0858 56.8758 10.6347 56.8648 10.1788C56.8438 9.31205 56.2642 8.91508 55.3681 7.8703C55.1851 7.49671 54.8408 7.21058 54.4063 7.15567C54.4058 7.15567 54.4053 7.15567 54.4048 7.15567C49.112 6.49997 43.9175 6.07958 38.7782 5.86042C38.7733 5.85923 38.7694 5.85596 38.7645 5.85483C31.5541 3.98098 24.396 2.60977 16.8845 1.66279C16.2256 1.58136 15.6279 1.99554 15.4947 2.60877L14.5185 6.4651C12.8594 6.62193 11.2008 6.79471 9.54192 6.99885C8.90708 7.07625 8.42857 7.61609 8.42857 8.25545V30.4488L2.00279 55.7612C1.83007 56.4499 2.267 57.1198 2.90754 57.2802C4.79421 57.7919 6.63055 58.2926 8.42857 58.786V63.0897ZM37.0688 64.8578C39.4672 64.8725 41.9638 64.8901 46.2247 64.8089C46.0133 65.4613 45.8024 66.1162 45.5894 66.759C42.8079 66.1839 40.011 65.5595 37.0688 64.8578ZM59.5202 14.1866C58.4574 17.6868 57.8754 20.4462 57.0984 24.0166C57.0651 20.4305 57.0053 16.8236 56.9282 13.197C57.7661 13.5101 58.6253 13.838 59.5202 14.1866ZM16.9308 3.22501C21.8257 3.84891 26.5655 4.67425 31.2733 5.6845C26.1989 5.67872 21.1674 5.89743 16.1463 6.32499L16.9308 3.22501ZM9.97269 8.50175C24.3965 6.74451 38.7902 6.79578 53.9584 8.65656C53.5765 16.8104 55.2724 36.376 53.3739 63.0445C38.0541 63.706 25.5633 63.0306 9.97269 62.8113V8.50175ZM3.57103 55.8607L8.42857 36.7254V57.1844C6.84424 56.7508 5.23352 56.3115 3.57103 55.8607Z" fill="#F76F14"/>
<path d="M16.5649 28.0947C37.5852 28.2821 35.2693 28.1417 38.6485 28.334C45.7345 28.7406 47.952 28.3636 47.8771 21.3463L47.873 16.1801C47.873 14.3163 46.5697 12.7993 44.9678 12.7993H16.582C14.9801 12.7993 13.6768 14.3163 13.6768 16.1801V24.7129C13.6768 26.5667 14.9721 28.0837 16.5649 28.0947ZM15.2209 16.1801C15.2209 15.1849 15.8442 14.3434 16.582 14.3434H44.9678C45.7056 14.3434 46.3289 15.1849 46.3289 16.1801L46.3329 21.3623C46.3909 26.8956 45.6016 27.1851 38.737 26.7929C35.3148 26.5963 37.5005 26.7377 16.5755 26.5506C15.8411 26.5456 15.2209 25.7042 15.2209 24.7129V16.1801Z" fill="#F76F14"/>
<path d="M13.4535 35.2524H34.8705C35.2968 35.2524 35.6426 34.9066 35.6426 34.4803C35.6426 34.0541 35.2968 33.7083 34.8705 33.7083H13.4535C13.0272 33.7083 12.6814 34.0541 12.6814 34.4803C12.6814 34.9066 13.0272 35.2524 13.4535 35.2524Z" fill="#F76F14"/>
<path d="M13.182 44.2065H41.4657C41.8919 44.2065 42.2377 43.8607 42.2377 43.4344C42.2377 43.0082 41.8919 42.6624 41.4657 42.6624H13.182C12.7557 42.6624 12.4099 43.0082 12.4099 43.4344C12.4099 43.8607 12.7557 44.2065 13.182 44.2065Z" fill="#F76F14"/>
<path d="M31.8164 51.7562C31.8164 51.3299 31.4706 50.9841 31.0443 50.9841H12.7301C12.3038 50.9841 11.958 51.3299 11.958 51.7562C11.958 52.1824 12.3038 52.5282 12.7301 52.5282H31.0443C31.4706 52.5282 31.8164 52.1824 31.8164 51.7562Z" fill="#F76F14"/>
<path d="M38.8625 51.617V56.9009C38.8625 57.2197 39.1207 57.4702 39.4319 57.4702H48.2991C48.6104 57.4702 48.8685 57.2197 48.8685 56.9009V51.6625C48.8685 51.3209 48.5572 51.0628 48.2308 51.0931L39.4395 51.0476C39.1063 51.0324 38.8625 51.3078 38.8625 51.617Z" fill="#F76F14"/>
<path d="M60.2685 10.1957C61.0832 10.1957 60.9921 9.41632 62.6722 6.36054C62.8778 5.98657 62.7415 5.51711 62.3676 5.31203C61.9951 5.10494 61.5251 5.24266 61.3191 5.61663C60.2153 7.62253 60.2991 7.71315 59.586 9.06375C59.3121 9.58373 59.6977 10.1957 60.2685 10.1957Z" fill="#F76F14"/>
<path d="M62.1495 11.8021C62.2983 12.0243 62.543 12.1449 62.7918 12.1449C62.9396 12.1449 63.0884 12.1027 63.2201 12.0152C64.8928 10.8969 65.3877 10.3982 66.8024 9.35828C67.1462 9.10595 67.2201 8.62241 66.9678 8.2786C66.715 7.93479 66.2319 7.86141 65.8886 8.11373C64.4658 9.1578 63.9901 9.64384 62.3626 10.7305C62.0077 10.9677 61.9127 11.4473 62.1495 11.8021Z" fill="#F76F14"/>
<path d="M67.2643 15.5789C67.6503 15.5789 67.9836 15.2904 68.0298 14.8973C68.0801 14.4741 67.7775 14.0901 67.3543 14.0398C66.0472 13.886 64.8995 13.9604 63.685 13.8156C63.2552 13.7714 62.8772 14.068 62.8275 14.4922C62.7772 14.9154 63.0798 15.2994 63.503 15.3497C64.8101 15.5035 65.9578 15.4291 67.1723 15.5739C67.2035 15.5769 67.2341 15.5789 67.2643 15.5789Z" fill="#F76F14"/>
</svg>
