<svg width="380" height="426" viewBox="0 0 380 426" fill="none" xmlns="http://www.w3.org/2000/svg">
<g clip-path="url(#clip0_330_248)">
<path d="M358.987 413.667C362.089 355.287 365.589 296.885 368.957 238.527C372.413 182.606 375.249 126.663 378.55 70.7871C378.883 65.5362 379.215 60.3518 378.971 55.0788C378.706 50.2932 377.886 49.3626 372.967 49.3626C369.046 49.3626 365.146 49.3405 361.203 49.2297C317.135 47.9668 273.09 46.6596 229.022 45.3082C174.342 43.6022 119.685 41.8519 65.0045 40.1681C47.989 39.6363 30.9735 39.2597 13.9581 38.9938C1.59523 38.7944 0.509607 39.6585 0.24374 52.1542C-0.132905 69.2805 2.80738e-05 86.4289 0.0664949 103.6C0.132962 124.958 0.332362 146.315 0.487451 167.673C0.598229 182.385 0.664696 197.052 0.841941 211.719C1.0635 230.462 1.50661 249.206 1.6617 267.95C1.79463 284.522 1.6617 301.094 1.6617 317.645C1.6617 341.794 1.61739 365.9 1.70601 390.049C1.77248 400.196 2.12696 410.388 2.32637 420.535C2.39283 423.77 4.12097 425.299 7.28922 425.299C18.8544 425.365 30.4418 425.454 42.007 425.476C45.6849 425.52 49.3848 425.52 53.0627 425.52C75.174 425.52 97.2631 425.343 119.374 425.254C134.617 425.21 149.86 425.166 165.148 425.055C186.063 424.922 206.978 424.7 227.937 424.612C234.229 424.59 240.499 424.568 246.813 424.612C257.071 424.612 267.352 424.656 277.654 424.612C300.873 424.568 324.136 424.302 347.4 424.568C354.091 424.634 358.522 422.507 358.987 413.667Z" fill="#C9E6F3"/>
<path d="M238.704 85.1662L235.47 82.6626C234.65 82.0201 233.542 81.9093 232.612 82.3746L225.145 86.0081C224.215 86.4734 223.107 86.3404 222.265 85.7201L215.707 80.6465C214.887 80.0039 213.779 79.8932 212.827 80.3584L205.36 83.992C204.43 84.4572 203.3 84.3243 202.48 83.7039L195.922 78.6303C195.102 77.9878 193.994 77.877 193.042 78.3423L185.575 81.9758C184.645 82.4411 183.515 82.3081 182.695 81.6656L176.159 76.5698C175.339 75.9273 174.209 75.8165 173.279 76.2818L165.857 79.9153C164.926 80.3806 163.796 80.2698 162.976 79.6273C157.726 75.3956 157.859 71.7399 157.859 71.7399C157.859 69.9675 157.836 68.1729 157.792 66.3783C157.438 45.9065 157.15 25.3904 156.795 4.91865C156.795 4.27614 156.795 3.65578 156.773 2.99111C156.729 -0.487315 157.925 -0.11067 158.656 0.265975C160.872 1.41807 166.942 5.84918 166.942 5.84918C167.806 6.42523 168.936 6.46954 169.845 5.95996L177.023 1.81687C177.932 1.28513 179.039 1.32944 179.903 1.90549L186.816 6.53601C187.68 7.11205 188.81 7.15636 189.718 6.62463L196.897 2.48153C197.805 1.9498 198.913 1.99411 199.799 2.59231L206.667 7.22283C207.531 7.79888 208.661 7.84319 209.548 7.33361L216.748 3.19051C217.656 2.68093 218.764 2.70309 219.628 3.30129L226.497 7.93181C227.361 8.50785 228.491 8.55217 229.399 8.04259L235.514 4.51985C235.514 4.51985 237.729 2.81387 237.752 6.84619C237.752 7.20067 237.84 7.51085 237.862 7.8875C238.616 32.5688 239.901 57.1837 241.673 81.7764" fill="#F76F14"/>
</g>
<defs>
<clipPath id="clip0_330_248">
<rect width="379.06" height="425.52" fill="white"/>
</clipPath>
</defs>
</svg>
