<svg width="380" height="409" viewBox="0 0 380 409" fill="none" xmlns="http://www.w3.org/2000/svg">
<path d="M346.992 127.693C348.297 126.456 348.936 125.995 347.853 124.685C345.355 121.678 343.134 118.403 340.969 115.226C338.581 111.733 335.667 108.629 333.224 105.233C329.004 99.3632 323.841 94.1483 318.789 88.8607C314.431 84.3008 309.878 79.8621 305.076 75.666C301.356 72.4158 297.775 68.8989 293.833 66.0368C289.78 63.1019 286.31 59.5122 281.536 57.1594C278.149 55.4858 275.789 52.2357 272.403 50.368C268.433 48.1851 265.38 44.9591 261.049 43.0673C259.495 42.3881 256.386 42.0971 256.191 39.332C256.108 38.1192 254.359 39.526 253.61 38.7741C251.084 36.3001 246.809 35.8878 244.671 32.9772C243.866 31.8857 242.645 32.7104 241.618 32.4193C238.786 31.5946 236.454 29.8968 233.762 28.8296C230.514 27.544 227.238 26.113 223.824 25.6279C220.076 25.0943 216.773 23.4934 212.97 23.1054C210.333 22.8386 207.834 23.1539 205.28 23.2266C204.586 23.2266 204.503 23.542 204.448 24.2454C204.059 29.1449 204.253 34.0444 204.198 38.9439C204.142 43.0673 203.615 47.2391 203.754 51.314C203.976 57.3777 203.504 63.4415 203.754 69.5052C203.892 72.8282 204.309 76.1996 204.142 79.4983C204.031 81.754 201.283 80.7111 199.728 81.0506C196.009 81.8268 192.233 80.7111 188.403 81.3659C185.793 81.8025 182.878 81.9238 180.13 81.7055C173.385 81.1962 166.834 82.3604 160.199 82.894C157.007 83.1366 153.315 82.894 150.9 84.228C147.707 86.0229 143.405 84.228 140.878 87.2842C140.295 88.0118 138.547 85.368 137.436 87.4054C134.022 86.5808 131.884 89.3216 128.803 89.8067C125.389 90.3403 122.307 92.3777 118.893 93.1054C115.423 93.833 113.535 97.3743 109.51 96.8649C109.038 96.7921 108.677 97.2772 108.289 97.447C103.292 99.6785 98.7673 102.613 93.8261 104.99C90.4117 106.64 86.7752 108.362 83.4996 110.496C79.3357 113.213 75.838 116.754 71.0911 118.937C69.2868 119.762 66.9827 121.071 66.2055 123.23C62.1248 123.157 61.5696 126.941 58.877 128.542C55.6013 130.482 53.2696 133.684 50.6046 136.401C46.635 140.427 42.832 144.575 39.6396 149.134C38.7513 150.396 37.3356 151.439 35.9754 152.36C33.7824 153.816 33.6436 156.241 32.1724 158.085C30.0071 160.801 27.37 163.324 25.8987 166.477C23.678 171.207 20.0692 175.306 18.0706 180.181C15.9608 185.299 12.602 190.028 10.8253 195.219C8.74339 201.307 6.38384 207.322 4.88483 213.58C3.58013 219.086 2.30319 224.616 1.49817 230.171C0.804182 234.876 0.221214 239.654 0.054657 244.432C-0.1119 249.114 0.165695 253.843 0.054657 258.5C-0.0286214 262.696 0.831933 266.747 1.10953 270.846C1.41488 275.358 2.44196 280.015 3.77441 284.356C4.35736 286.272 3.13595 288.989 5.82861 290.396C5.74533 295.101 8.35474 299.249 9.60391 303.688C10.4922 306.816 12.1856 309.8 13.9899 312.638C14.8227 313.947 15.0725 315.378 15.6555 316.664C17.7652 321.321 20.7077 325.59 23.5947 329.81C25.8987 333.157 26.9258 337.523 31.5061 339.512C31.6449 339.561 31.7004 339.827 31.756 339.997C33.477 344.727 37.8353 347.638 41.4718 351.082C42.8042 352.343 43.637 353.968 45.8855 354.332C46.4962 354.429 46.0798 355.011 45.8022 355.399C45.2471 356.151 45.8578 356.539 46.524 356.83C51.1598 358.843 54.1023 362.385 57.1004 365.853C59.2101 368.279 63.0131 368.545 65.0396 370.825C67.4547 373.542 71.2854 374.561 74.0336 376.986C75.2828 378.102 77.5036 380.042 80.3628 380.018C82.0284 380.018 81.8063 382.856 84.2491 382.807C84.6655 382.807 85.304 383.85 86.3866 383.317C86.8585 383.074 87.4414 383.317 87.7468 383.681C89.3846 385.548 91.1057 387.222 94.187 386.737C94.6867 390.084 99.2947 388.556 100.71 390.957C101.516 392.34 104.402 390.472 104.958 392.728C110.232 393.431 114.618 396.342 119.976 397.263C122.307 397.676 125.139 398.549 127.637 399.471C129.997 400.344 132.634 400.756 135.188 401.168C136.714 401.411 137.27 403.157 139.296 402.697C143.46 401.726 147.013 404.152 150.955 404.613C155.841 405.171 160.699 405.995 165.64 406.213C166.778 406.262 168.416 405.631 169.138 407.378C169.415 408.033 170.303 406.893 171.386 406.941C175.161 407.111 178.826 407.936 182.545 408.008C184.461 408.033 186.432 407.887 188.375 407.79C194.704 407.45 201.061 407.766 207.39 406.941C209.028 406.723 211.665 407.111 212.109 406.844C215.135 405.122 218.438 406.335 221.464 405.583C225.933 404.491 230.458 403.618 234.844 402.357C237.481 401.605 239.896 399.786 242.7 400.053C245.171 400.271 247.058 399.107 249.307 398.913C250.029 398.84 252.138 399.204 251.278 397.263C251.139 396.972 251.833 396.584 252.166 396.73C254.442 397.7 255.886 395.857 257.329 395.202C259.3 394.28 261.91 394.256 263.325 392.437C267.073 393.577 268.461 389.114 272.264 389.647C274.152 389.914 275.429 387.464 277.427 386.64C281.203 385.063 284.7 383.001 288.309 381.134C290.086 380.212 291.251 378.708 293.111 377.738C297.275 375.555 301.3 373.008 304.854 370.122C309.351 366.484 314.042 362.991 318.456 359.256C322.231 356.054 325.618 352.586 329.143 349.238C335.25 343.441 340.719 337.111 345.271 330.247C346.937 327.748 348.825 325.347 350.462 322.825C350.99 322.024 352.322 321.224 351.129 320.011C350.99 319.866 351.24 319.114 351.323 319.114C355.57 318.968 353.988 315.621 355.015 313.778C355.487 312.929 355.209 311.886 356.847 311.861C357.236 311.861 357.902 311.11 357.902 310.721C357.902 307.593 360.178 305.313 361.427 302.62C362.454 300.365 363.565 298.085 363.981 295.586C364.231 294.107 365.952 293.064 366.424 291.39C366.924 289.668 367.479 287.897 368.367 286.2C370.144 282.78 370.616 278.947 371.587 275.309C372.837 270.676 375.307 266.286 375.196 261.265C375.168 259.81 374.752 257.215 376.723 255.687C374.918 254.013 377.084 252.34 376.889 250.545C376.667 248.823 377.361 246.567 378.055 244.627C378.166 244.311 378.666 243.875 378.555 243.729C376.334 240.697 379.166 237.714 378.61 234.561C378.139 231.82 379.166 228.764 379.055 225.805C378.999 223.888 379.277 222.045 378.499 220.105C377.972 218.819 379.027 217.073 378.583 215.715C377.472 212.27 379.665 208.39 376.584 205.236C376.279 204.921 376.279 204.145 376.473 203.684C377.861 200.191 375.668 197.159 375.196 193.934C374.863 191.726 374.696 189.301 374.474 186.972C374.252 184.717 373.558 182.558 372.004 180.617C371.143 179.575 371.449 177.974 371.365 176.882C371.171 174.627 370.033 172.613 369.922 170.358C369.783 167.811 368.534 165.24 367.174 162.839C365.786 160.413 365.314 157.697 364.231 155.15C361.927 149.838 359.401 144.696 356.264 139.699C354.099 136.255 352.766 132.35 350.684 128.809C349.99 127.645 349.269 127.232 347.187 127.693H346.992Z" fill="#92D4F1"/>
<g clip-path="url(#clip0_330_243)">
<path d="M140.375 13.7417C139.63 14.8384 139.333 15.9611 138.164 14.5019C137.548 13.7224 135.833 14.3709 134.654 14.1174C132.677 13.6948 130.524 13.3883 128.716 13.6599C126.765 13.9295 124.767 14.159 122.884 13.9551C120.682 13.7072 118.677 14.7471 116.665 14.6996C114.397 14.6485 112.501 15.9666 110.47 16.1758C109.016 16.3337 107.507 17.1036 106.074 16.6489C105.134 16.3592 105.252 17.5074 104.756 17.5994C102.724 17.947 100.829 19.0872 98.8457 19.4552C98.0458 19.6023 97.9265 20.431 97.1745 20.5788C95.0148 20.9839 92.727 21.407 90.8472 22.6463C89.9796 23.2274 88.9566 23.3121 88.1672 24.0722C87.5229 24.6761 86.8802 25.1022 85.9391 24.9706C85.1096 24.8603 84.3363 25.6008 83.7065 26.3631C83.2869 26.8515 82.9447 27.598 82.2911 27.4704C81.8446 27.3852 81.2976 27.8323 80.9834 27.2547C80.6376 26.6371 81.2625 26.4085 81.4259 25.9956C83.3844 21.3374 85.2794 16.6389 87.3013 12.0409C88.2469 9.89914 89.0655 7.67657 90.0111 5.53483C90.5493 4.29682 90.7133 2.04546 89.7344 0.786529C89.1501 0.0470289 88.2798 -0.854566 86.951 -0.497292C83.9409 0.331008 82.6218 3.1595 81.0315 5.94471C80.3338 7.16075 79.3987 8.13628 78.7952 9.53153C77.9961 11.359 76.8157 12.9637 75.8898 14.6906C74.8502 16.6334 74.1909 18.8977 72.9449 20.6992C70.9866 23.5584 69.4074 26.8973 68.148 30.1813C67.0359 33.072 65.6524 35.9589 64.9688 39.152C64.485 41.4385 65.2576 42.5562 66.811 43.8625C69.2521 45.9126 72.1124 45.7544 74.6888 46.9761C75.8497 47.5258 77.3429 46.6568 78.7123 47.1106C82.5815 48.4292 86.64 48.2282 90.5931 49.0932C93.0001 49.6207 95.6029 49.6763 98.1092 49.8097C98.8756 49.8401 99.5438 50.1261 100.261 50.3139C100.898 50.4808 101.596 51.0242 102.132 50.0234C102.311 49.6898 102.632 49.5163 102.885 49.7768C104.435 51.439 105.505 49.6548 106.154 48.616C106.786 47.5967 107.122 45.7036 106.813 44.5132C106.366 42.7476 104.793 41.8956 103.475 41.0274C101.426 39.6944 99.074 40.2155 96.8763 39.513C93.4205 38.3978 89.8488 37.7555 86.3593 36.8376C85.8176 36.6917 85.2947 36.2298 85.335 35.3012C85.3794 33.9181 86.1047 34.956 86.4892 34.823C87.0501 34.6132 87.6065 34.8977 87.9834 33.8354C88.4587 32.4976 89.8563 33.367 90.8367 32.6886C94.1312 30.4211 98.0466 30.1588 101.467 28.071C102.351 27.5297 103.82 27.5499 105.02 27.3292C106.843 26.9986 108.575 26.2119 110.43 25.941C115.005 25.2331 119.594 24.6045 124.168 23.9164C128.614 23.2463 133.018 23.7024 137.392 24C141.957 24.3002 146.566 25.0557 151.042 26.3628C154.928 27.5037 158.782 28.8221 162.552 30.4358C165.607 31.7431 168.579 33.3854 171.404 35.3222C172.849 36.3108 174.324 37.3986 175.752 38.4463C178.18 40.2589 180.509 42.2679 182.937 44.1004C183.952 44.8656 185.049 43.576 186.259 44.0276C187.358 44.4381 189.987 41.5486 189.872 40.1632C189.656 37.5508 189.774 35.0616 187.67 32.8185C185.502 30.5152 183.217 28.9614 180.706 27.5628C180.15 27.2388 179.316 27.5831 179.097 27.0859C178.298 25.2957 176.7 27.2307 175.834 25.8152C174.874 24.26 173.212 24.3755 171.909 23.6063C171.305 23.2619 170.346 23.3278 169.551 23.04C169.153 22.8961 168.642 22.8298 168.453 22.4911C167.433 20.5397 165.717 21.3068 164.332 20.8132C163.584 20.5459 162.564 20.2551 162.184 19.8743C160.078 17.8486 157.452 18.6229 155.146 17.5038C153.445 16.6698 151.251 15.5127 149.022 16.589C148.252 16.954 147.252 16.189 146.361 15.8604C144.801 15.2854 143.241 14.7103 141.574 15.3792C140.772 15.7042 140.314 15.2037 140.391 13.7419L140.375 13.7417Z" fill="#F8934F"/>
</g>
<defs>
<clipPath id="clip0_330_243">
<rect width="125" height="51" fill="white" transform="matrix(1 0 0 -1 65 51)"/>
</clipPath>
</defs>
</svg>
