<svg width="380" height="386" viewBox="0 0 380 386" fill="none" xmlns="http://www.w3.org/2000/svg">
<path d="M346.992 104.693C348.297 103.456 348.936 102.995 347.853 101.685C345.355 98.6778 343.134 95.4034 340.969 92.226C338.581 88.7332 335.667 85.6286 333.224 82.2329C329.004 76.3632 323.841 71.1483 318.789 65.8607C314.431 61.3008 309.878 56.8621 305.076 52.666C301.356 49.4158 297.775 45.8989 293.833 43.0368C289.78 40.1019 286.31 36.5122 281.536 34.1594C278.149 32.4858 275.789 29.2357 272.403 27.368C268.433 25.1851 265.38 21.9591 261.049 20.0673C259.495 19.3881 256.386 19.0971 256.191 16.332C256.108 15.1192 254.359 16.526 253.61 15.7741C251.084 13.3001 246.809 12.8878 244.671 9.97716C243.866 8.88569 242.645 9.71036 241.618 9.4193C238.786 8.59463 236.454 6.89678 233.762 5.82956C230.514 4.54404 227.238 3.11299 223.824 2.62789C220.076 2.09428 216.773 0.49345 212.97 0.105369C210.333 -0.161436 207.834 0.153879 205.28 0.226644C204.586 0.226644 204.503 0.54196 204.448 1.24536C204.059 6.14487 204.253 11.0444 204.198 15.9439C204.142 20.0673 203.615 24.2391 203.754 28.314C203.976 34.3777 203.504 40.4415 203.754 46.5052C203.892 49.8282 204.309 53.1996 204.142 56.4983C204.031 58.754 201.283 57.7111 199.728 58.0506C196.009 58.8268 192.233 57.7111 188.403 58.3659C185.793 58.8025 182.878 58.9238 180.13 58.7055C173.385 58.1962 166.834 59.3604 160.199 59.894C157.007 60.1366 153.315 59.894 150.9 61.228C147.707 63.0229 143.405 61.228 140.878 64.2842C140.295 65.0118 138.547 62.368 137.436 64.4054C134.022 63.5808 131.884 66.3216 128.803 66.8067C125.389 67.3403 122.307 69.3777 118.893 70.1054C115.423 70.833 113.535 74.3743 109.51 73.8649C109.038 73.7921 108.677 74.2772 108.289 74.447C103.292 76.6785 98.7673 79.6134 93.8261 81.9903C90.4117 83.6397 86.7752 85.3618 83.4996 87.4962C79.3357 90.2128 75.838 93.754 71.0911 95.937C69.2868 96.7616 66.9827 98.0714 66.2055 100.23C62.1248 100.157 61.5696 103.941 58.877 105.542C55.6013 107.482 53.2696 110.684 50.6046 113.401C46.635 117.427 42.832 121.575 39.6396 126.134C38.7513 127.396 37.3356 128.439 35.9754 129.36C33.7824 130.816 33.6436 133.241 32.1724 135.085C30.0071 137.801 27.37 140.324 25.8987 143.477C23.678 148.207 20.0692 152.306 18.0706 157.181C15.9608 162.299 12.602 167.028 10.8253 172.219C8.74339 178.307 6.38384 184.322 4.88483 190.58C3.58013 196.086 2.30319 201.616 1.49817 207.171C0.804182 211.876 0.221214 216.654 0.054657 221.432C-0.1119 226.114 0.165695 230.843 0.054657 235.5C-0.0286214 239.696 0.831933 243.747 1.10953 247.846C1.41488 252.358 2.44196 257.015 3.77441 261.356C4.35736 263.272 3.13595 265.989 5.82861 267.396C5.74533 272.101 8.35474 276.249 9.60391 280.688C10.4922 283.816 12.1856 286.8 13.9899 289.638C14.8227 290.947 15.0725 292.378 15.6555 293.664C17.7652 298.321 20.7077 302.59 23.5947 306.81C25.8987 310.157 26.9258 314.523 31.5061 316.512C31.6449 316.561 31.7004 316.827 31.756 316.997C33.477 321.727 37.8353 324.638 41.4718 328.082C42.8042 329.343 43.637 330.968 45.8855 331.332C46.4962 331.429 46.0798 332.011 45.8022 332.399C45.2471 333.151 45.8578 333.539 46.524 333.83C51.1598 335.843 54.1023 339.385 57.1004 342.853C59.2101 345.279 63.0131 345.545 65.0396 347.825C67.4547 350.542 71.2854 351.561 74.0336 353.986C75.2828 355.102 77.5036 357.042 80.3628 357.018C82.0284 357.018 81.8063 359.856 84.2491 359.807C84.6655 359.807 85.304 360.85 86.3866 360.317C86.8585 360.074 87.4414 360.317 87.7468 360.681C89.3846 362.548 91.1057 364.222 94.187 363.737C94.6867 367.084 99.2947 365.556 100.71 367.957C101.516 369.34 104.402 367.472 104.958 369.728C110.232 370.431 114.618 373.342 119.976 374.263C122.307 374.676 125.139 375.549 127.637 376.471C129.997 377.344 132.634 377.756 135.188 378.168C136.714 378.411 137.27 380.157 139.296 379.697C143.46 378.726 147.013 381.152 150.955 381.613C155.841 382.171 160.699 382.995 165.64 383.213C166.778 383.262 168.416 382.631 169.138 384.378C169.415 385.033 170.303 383.893 171.386 383.941C175.161 384.111 178.826 384.936 182.545 385.008C184.461 385.033 186.432 384.887 188.375 384.79C194.704 384.45 201.061 384.766 207.39 383.941C209.028 383.723 211.665 384.111 212.109 383.844C215.135 382.122 218.438 383.335 221.464 382.583C225.933 381.491 230.458 380.618 234.844 379.357C237.481 378.605 239.896 376.786 242.7 377.053C245.171 377.271 247.058 376.107 249.307 375.913C250.029 375.84 252.138 376.204 251.278 374.263C251.139 373.972 251.833 373.584 252.166 373.73C254.442 374.7 255.886 372.857 257.329 372.202C259.3 371.28 261.91 371.256 263.325 369.437C267.073 370.577 268.461 366.114 272.264 366.647C274.152 366.914 275.429 364.464 277.427 363.64C281.203 362.063 284.7 360.001 288.309 358.134C290.086 357.212 291.251 355.708 293.111 354.738C297.275 352.555 301.3 350.008 304.854 347.122C309.351 343.484 314.042 339.991 318.456 336.256C322.231 333.054 325.618 329.586 329.143 326.238C335.25 320.441 340.719 314.111 345.271 307.247C346.937 304.748 348.825 302.347 350.462 299.825C350.99 299.024 352.322 298.224 351.129 297.011C350.99 296.866 351.24 296.114 351.323 296.114C355.57 295.968 353.988 292.621 355.015 290.778C355.487 289.929 355.209 288.886 356.847 288.861C357.236 288.861 357.902 288.11 357.902 287.721C357.902 284.593 360.178 282.313 361.427 279.62C362.454 277.365 363.565 275.085 363.981 272.586C364.231 271.107 365.952 270.064 366.424 268.39C366.924 266.668 367.479 264.897 368.367 263.2C370.144 259.78 370.616 255.947 371.587 252.309C372.837 247.676 375.307 243.286 375.196 238.265C375.168 236.81 374.752 234.215 376.723 232.687C374.918 231.013 377.084 229.34 376.889 227.545C376.667 225.823 377.361 223.567 378.055 221.627C378.166 221.311 378.666 220.875 378.555 220.729C376.334 217.697 379.166 214.714 378.61 211.561C378.139 208.82 379.166 205.764 379.055 202.805C378.999 200.888 379.277 199.045 378.499 197.105C377.972 195.819 379.027 194.073 378.583 192.715C377.472 189.27 379.665 185.39 376.584 182.236C376.279 181.921 376.279 181.145 376.473 180.684C377.861 177.191 375.668 174.159 375.196 170.934C374.863 168.726 374.696 166.301 374.474 163.972C374.252 161.717 373.558 159.558 372.004 157.617C371.143 156.575 371.449 154.974 371.365 153.882C371.171 151.627 370.033 149.613 369.922 147.358C369.783 144.811 368.534 142.24 367.174 139.839C365.786 137.413 365.314 134.697 364.231 132.15C361.927 126.838 359.401 121.696 356.264 116.699C354.099 113.255 352.766 109.35 350.684 105.809C349.99 104.645 349.269 104.232 347.187 104.693H346.992Z" fill="#92D4F1"/>
</svg>
